<svg xmlns="http://www.w3.org/2000/svg" xmlns:xlink="http://www.w3.org/1999/xlink" viewBox="0 0 350 330" preserveAspectRatio="xMidYMin">
  <!-- <rect width="350" height="350" viewBox="0 0 350 330" fill="grey"/> -->
  <g>
    <animate attributeType="CSS"
          attributeName="opacity"
          values="1; 0"
          keyTimes="0; 1"
          dur="0.3s"
          fill="freeze"
          begin="start.begin + 2.5s"
          />
    <g>
      <animateTransform attributeName="transform"
        type="scale"
        values="1 1; 1 0.98; 1 1"
        dur="1s"
        repeatCount="3"
        fill="freeze"
        begin="0s"
        id="start"
        />
      <path d="M175.44,249.28h48.36a13.27,13.27,0,0,0,13-10.65l3.74-18.32H172.36v25.89A3.09,3.09,0,0,0,175.44,249.28Z" fill="none" stroke="#fff" stroke-linecap="round" stroke-linejoin="round" stroke-width="2"/>
      <path d="M235.79,241.69h-9.22a8.31,8.31,0,0,1-8.28-8.31V220.31" fill="none" stroke="#fff" stroke-linecap="round" stroke-miterlimit="10" stroke-width="2"/>
      <path d="M185.64,231.88h-2.05a3.45,3.45,0,0,0-3.43,3.45v2.92a3.45,3.45,0,0,0,3.43,3.45h2.05a3.45,3.45,0,0,0,3.43-3.45v-2.92A3.45,3.45,0,0,0,185.64,231.88Z" fill="none" stroke="#fff" stroke-linecap="round" stroke-linejoin="round" stroke-width="2"/>
    </g>
    <g>
      <animateTransform attributeName="transform"
        type="translate"
        values="0 0; 0 -3; 0 0; 0 3; 0 0"
        dur="2s"
        repeatCount="2"
        begin="start.begin"
        />
      <path d="M123.23,173.34h9.16a3.29,3.29,0,0,1,3.29,3.3v5.71a3.29,3.29,0,0,1-3.29,3.3H115.57a1.32,1.32,0,0,1-1.32-1.32v-2a9,9,0,0,1,9-9" fill="#068e4d"/>
      <path d="M123.23,173.34h9.16a3.29,3.29,0,0,1,3.29,3.3v5.71a3.29,3.29,0,0,1-3.29,3.3H115.57a1.32,1.32,0,0,1-1.32-1.32v-2A9,9,0,0,1,123.23,173.34Z" fill="none" stroke="#fff" stroke-linecap="round" stroke-linejoin="round" stroke-width="2"/>
      <path d="M123.23,207.39h9.16a3.29,3.29,0,0,0,3.29-3.3v-5.71a3.29,3.29,0,0,0-3.29-3.3H115.57a1.32,1.32,0,0,0-1.32,1.32v2a9,9,0,0,0,9,9" fill="#068e4d"/>
      <path d="M123.23,207.39h9.16a3.29,3.29,0,0,0,3.29-3.3v-5.71a3.29,3.29,0,0,0-3.29-3.3H115.57a1.32,1.32,0,0,0-1.32,1.32v2A9,9,0,0,0,123.23,207.39Z" fill="none" stroke="#fff" stroke-linecap="round" stroke-linejoin="round" stroke-width="2"/>
    </g>
    <path d="M205,227.08c43.38,0,74.86-15.55,74.86-37s-31.48-37-74.86-37c-27.94,0-55.36,13.53-73.46,24.87a14.3,14.3,0,0,0,0,24.21c18.09,11.33,45.52,24.87,73.46,24.87" fill="#068e4d"/>
    <path d="M205,227.08c43.38,0,74.86-15.55,74.86-37s-31.48-37-74.86-37c-27.94,0-55.36,13.53-73.46,24.87a14.3,14.3,0,0,0,0,24.21C149.63,213.54,177.06,227.08,205,227.08Z" fill="none" stroke="#fff" stroke-width="2"/>
    <path d="M127.612 183.901C126.546 185.908 126.028 188.159 126.11 190.43C126.11 190.3 278.63 190.19 278.63 190.07C278.63 170.32 249.8 154.32 204.99 154.32C176.76 154.32 148.92 168.5 132.18 179C130.253 180.204 128.678 181.894 127.612 183.901Z" fill="#36E69A"/>
    <path d="M132.18,195.12c16.74,4.27,44.58,10,72.81,10,44.14,0,72.75-6.32,73.6-14.18-0.86,19.34-29.45,34.86-73.6,34.86-28.23,0-56.07-14.19-72.81-24.68a12.88,12.88,0,0,1-6-10.18c0.26,1.61,2.26,3.18,6,4.14" fill="#068e4d"/>
    <path d="M132.18 186.12C148.92 181.85 176.76 176.12 204.99 176.12C249.52 176.12 278.25 182.55 278.6 190.5C278.6 190.67 278.6 190.84 278.6 191.01C277.75 198.87 249.15 205.18 205 205.18C176.77 205.18 148.93 199.42 132.19 195.18C128.4 194.18 126.4 192.65 126.19 191.05V190.54C126.32 188.85 128.34 187.18 132.29 186.17" fill="#25b774">
      <animate
        begin="start.begin"
        repeatCount="2"
        attributeName="d"
        dur="2s"
        values="
        M132.18 186.12C148.92 181.85 176.76 176.12 204.99 176.12C249.52 176.12 278.25 182.55 278.6 190.5C278.6 190.67 278.6 190.84 278.6 191.01C277.75 198.87 249.15 205.18 205 205.18C176.77 205.18 148.93 199.42 132.19 195.18C128.4 194.18 126.4 192.65 126.19 191.05V190.54C126.32 188.85 128.34 187.18 132.29 186.17;
        M132.18 186.12C148.92 181.85 176.77 181.5 205 181.5C249.53 181.5 278.25 182.55 278.6 190.5C278.6 190.67 278.6 190.84 278.6 191.01C277.75 198.87 249.15 207.5 205 207.5C176.77 207.5 148.93 199.42 132.19 195.18C128.4 194.18 126.4 192.65 126.19 191.05V190.54C126.32 188.85 128.34 187.18 132.29 186.17;
        M132.18 186.12C148.92 181.85 176.76 176.12 204.99 176.12C249.52 176.12 278.25 182.55 278.6 190.5C278.6 190.67 278.6 190.84 278.6 191.01C277.75 198.87 249.15 205.18 205 205.18C176.77 205.18 148.93 199.42 132.19 195.18C128.4 194.18 126.4 192.65 126.19 191.05V190.54C126.32 188.85 128.34 187.18 132.29 186.17;
        M132.18 186.12C148.92 181.85 176.77 172 205 172C249.53 172 278.25 182.55 278.6 190.5C278.6 190.67 278.6 190.84 278.6 191.01C277.75 198.87 249.15 200.5 205 200.5C176.77 200.5 148.93 199.42 132.19 195.18C128.4 194.18 126.4 192.65 126.19 191.05V190.54C126.32 188.85 128.34 187.18 132.29 186.17;
        M132.18 186.12C148.92 181.85 176.76 176.12 204.99 176.12C249.52 176.12 278.25 182.55 278.6 190.5C278.6 190.67 278.6 190.84 278.6 191.01C277.75 198.87 249.15 205.18 205 205.18C176.77 205.18 148.93 199.42 132.19 195.18C128.4 194.18 126.4 192.65 126.19 191.05V190.54C126.32 188.85 128.34 187.18 132.29 186.17
        "/>
    </path>
    <g>
      <animateTransform attributeName="transform"
        type="translate"
        values="0 0; 0 3; 0 0; 0 -3; 0 0"
        dur="2s"
        begin="start.begin"
        repeatCount="2"/>
      <path d="M123.23,173.34h9.16a3.29,3.29,0,0,1,3.29,3.3v5.71a3.29,3.29,0,0,1-3.29,3.3H115.57a1.32,1.32,0,0,1-1.32-1.32v-2a9,9,0,0,1,9-9" fill="#068e4d"/>
      <path d="M123.23,173.34h9.16a3.29,3.29,0,0,1,3.29,3.3v5.71a3.29,3.29,0,0,1-3.29,3.3H115.57a1.32,1.32,0,0,1-1.32-1.32v-2A9,9,0,0,1,123.23,173.34Z" fill="none" stroke="#fff" stroke-linecap="round" stroke-linejoin="round" stroke-width="2"/>
      <path d="M123.23,207.39h9.16a3.29,3.29,0,0,0,3.29-3.3v-5.71a3.29,3.29,0,0,0-3.29-3.3H115.57a1.32,1.32,0,0,0-1.32,1.32v2a9,9,0,0,0,9,9" fill="#068e4d"/>
      <path d="M123.23,207.39h9.16a3.29,3.29,0,0,0,3.29-3.3v-5.71a3.29,3.29,0,0,0-3.29-3.3H115.57a1.32,1.32,0,0,0-1.32,1.32v2A9,9,0,0,0,123.23,207.39Z" fill="none" stroke="#fff" stroke-linecap="round" stroke-linejoin="round" stroke-width="2"/>
    </g>
      <line x1="106.25" y1="179.49" x2="84.05" y2="179.49" fill="none" stroke="#fff" stroke-linecap="round" stroke-miterlimit="10" stroke-width="2">
      <animate
    repeatCount="indefinite"
    attributeName="x2"
    dur="0.4s"
    begin="start.begin"
    values="84.05; 88; 84.05"/>
  </line>
  <line x1="106.25" y1="201.23" x2="84.05" y2="201.23" fill="none" stroke="#fff" stroke-linecap="round" stroke-miterlimit="10" stroke-width="2">
    <animate
    repeatCount="indefinite"
    attributeName="x2"
    dur="0.4s"
    begin="start.begin"
    values="84.05; 90; 84.05"/>
  </line>
  <line x1="106.25" y1="190.98" x2="68.77" y2="190.98" fill="none" stroke="#fff" stroke-linecap="round" stroke-miterlimit="10" stroke-width="2">
    <animate
    repeatCount="indefinite"
    attributeName="x2"
    dur="0.5s"
    begin="start.begin"
    values="68.77; 75; 68.77"/>
  </line>
  </g>
  <g>
      <animateTransform attributeName="transform"
        type="scale"
        values="1 1; 1 0.98; 1 1"
        dur="1s"
        repeatCount="2"
        begin="start.begin"
        fill="freeze"/>
      <animate attributeType="CSS"
        attributeName="opacity"
        values="0;"
        begin="start.begin +2.25s"
        fill="freeze"/>
        <path d="M204.25 231.88H202.2C201.288 231.885 200.416 232.251 199.773 232.898C199.131 233.544 198.77 234.418 198.77 235.33V238.25C198.77 239.162 199.131 240.036 199.773 240.682C200.416 241.329 201.288 241.695 202.2 241.7H204.25C205.162 241.695 206.034 241.329 206.677 240.682C207.319 240.036 207.68 239.162 207.68 238.25V235.33C207.681 234.878 207.594 234.431 207.422 234.013C207.25 233.595 206.998 233.215 206.68 232.895C206.361 232.574 205.983 232.32 205.566 232.146C205.149 231.972 204.702 231.881 204.25 231.88V231.88Z" fill="none" stroke="white" stroke-width="2" stroke-linecap="round" stroke-linejoin="round">
        <animate
          attributeName="d"
          begin="start.begin + 2s"
          dur="0.5s"
          values="
          M204.25 231.88H202.2C201.288 231.885 200.416 232.251 199.773 232.898C199.131 233.544 198.77 234.418 198.77 235.33V238.25C198.77 239.162 199.131 240.036 199.773 240.682C200.416 241.329 201.288 241.695 202.2 241.7H204.25C205.162 241.695 206.034 241.329 206.677 240.682C207.319 240.036 207.68 239.162 207.68 238.25V235.33C207.681 234.878 207.594 234.431 207.422 234.013C207.25 233.595 206.998 233.215 206.68 232.895C206.361 232.574 205.983 232.32 205.566 232.146C205.149 231.972 204.702 231.881 204.25 231.88V231.88Z;
          M272.367 152H260.633C255.415 152.04 250.422 154.796 246.743 159.668C243.065 164.539 241 171.129 241 177.998V200.002C241 206.871 243.065 213.461 246.743 218.332C250.422 223.204 255.415 225.96 260.633 226H272.367C277.584 225.96 282.578 223.204 286.257 218.332C289.935 213.461 292 206.871 292 200.002V177.998C292.007 174.594 291.506 171.221 290.523 168.072C289.541 164.923 288.096 162.06 286.273 159.646C284.45 157.232 282.284 155.314 279.898 154.002C277.512 152.69 274.953 152.01 272.367 152V152Z
          "
          fill="freeze"/>
        </path>
    </g>
  <g opacity="0">
  <animateTransform attributeName="transform"
        type="translate"
        values="0 0; -250 0"
        dur="1.5s"
        begin="start.begin"
        fill="freeze"/>
  <animate attributeType="CSS"
        attributeName="opacity"
        values="1; 1; 0"
        keyTimes="0; 0.8; 1"
        dur="1.5s"
        begin="start.begin"
        fill="freeze"/>
    <path d="M265.77 97.54H301.06C301.06 94.2513 302.366 91.0973 304.692 88.7719C307.017 86.4464 310.171 85.14 313.46 85.14C316.749 85.14 319.903 86.4464 322.228 88.7719C324.554 91.0973 325.86 94.2513 325.86 97.54H343.79" fill="none" stroke="white" stroke-width="2" stroke-miterlimit="10" stroke-linecap="round"/>
    <g>
      <animateTransform attributeName="transform"
        type="translate"
        values="0 0; 20 0"
        dur="1.5s"
        begin="start.begin"
        fill="freeze"/>
        <path d="M271.95 107.8H334.86" stroke="white" stroke-width="2" stroke-miterlimit="10" stroke-linecap="round"/>
    </g>
  </g>
  <g opacity="0">
    <animateTransform attributeName="transform"
          type="translate"
          values="0 0; -230 0"
          dur="1.5s"
          begin="start.begin + 1s"
          fill="freeze"/>
    <animate attributeType="CSS"
          attributeName="opacity"
          values="0; 0; 1; 1; 0"
          keyTimes="0; 0.4; 0.6; 0.9; 1"
          dur="2.5s"
          begin="start.begin"
          fill="freeze"/>
    <path d="M313.75 82.91H286.39C286.39 79.6213 285.084 76.4673 282.758 74.1419C280.433 71.8164 277.279 70.51 273.99 70.51C270.701 70.51 267.547 71.8164 265.222 74.1419C262.896 76.4673 261.59 79.6213 261.59 82.91H243.65" fill="none" stroke="white" stroke-width="2" stroke-miterlimit="10" stroke-linecap="round"/>
    <path d="M322.01 82.91H344.21" stroke="white" stroke-width="2" stroke-miterlimit="10" stroke-linecap="round"/>
    <g>
    <animateTransform attributeName="transform"
        type="translate"
        values="0 0; 20 0"
        dur="1.5s"
        begin="start.begin + 1s"
        fill="freeze"/>
    <path d="M293.96 93.19H333.74" stroke="white" stroke-width="2" stroke-miterlimit="10" stroke-linecap="round"/>
    </g>
  </g>

  <g>
    <animate attributeType="CSS"
        attributeName="opacity"
        values="1; 0"
        dur="0.1s"
        begin="start.begin + 2.5s"
        fill="freeze"/>
    <path d="M289.94 327.88H244.88L212.8 296.58C212.459 296.292 212.027 296.134 211.58 296.134C211.133 296.134 210.701 296.292 210.36 296.58L200.16 306.81C199.847 307.08 199.448 307.229 199.035 307.229C198.622 307.229 198.223 307.08 197.91 306.81L178.91 286.64C178.477 286.273 177.928 286.072 177.36 286.072C176.792 286.072 176.243 286.273 175.81 286.64L149.39 312.28C149.078 312.552 148.679 312.702 148.265 312.702C147.851 312.702 147.452 312.552 147.14 312.28L144.51 309.36C144.195 309.071 143.783 308.911 143.355 308.911C142.927 308.911 142.515 309.071 142.2 309.36L124.63 329H80.78" fill="none" stroke="#fff" stroke-linecap="round" stroke-miterlimit="10" stroke-width="2">
    <animate
          attributeName="d"
          dur="0.5s"
          begin="start.begin + 2s"
          values="
          M289.94 327.88H244.88L212.8 296.58C212.459 296.292 212.027 296.134 211.58 296.134C211.133 296.134 210.701 296.292 210.36 296.58L200.16 306.81C199.847 307.08 199.448 307.229 199.035 307.229C198.622 307.229 198.223 307.08 197.91 306.81L178.91 286.64C178.477 286.273 177.928 286.072 177.36 286.072C176.792 286.072 176.243 286.273 175.81 286.64L149.39 312.28C149.078 312.552 148.679 312.702 148.265 312.702C147.851 312.702 147.452 312.552 147.14 312.28L144.51 309.36C144.195 309.071 143.783 308.911 143.355 308.911C142.927 308.911 142.515 309.071 142.2 309.36L124.63 329H80.78;
          M289.94 327.88H244.88L216.5 327C216.159 326.712 211.447 327 211 327C210.553 327 206.841 326.712 206.5 327L201.5 328.5C201.187 328.77 197.913 329 197.5 329C197.087 329 195.313 329.27 195 329L184.5 327.5C184.067 327.133 174.568 326 174 326C173.432 326 169.933 326.133 169.5 326.5L156 328C155.688 328.272 149.414 328.5 149 328.5C148.586 328.5 146.312 328.772 146 328.5L144.5 328C144.185 327.711 142.428 327.5 142 327.5C141.572 327.5 139.315 327.711 139 328L124.63 329H80.78
          "
          fill="freeze"/>
    </path>
      </g>
  <g opacity="0">
  <animate attributeType="CSS"
        attributeName="opacity"
        values="0; 1"
        dur="0.1s"
        begin="start.begin + 2.5s"
        fill="freeze"/>
    <path d="M289.94,328H200.15c-0.86,0-1.56,0-2.25,0h-19c-1.5,0-2.23,0-3.1,0h-32.3c-1.09,0-1.66,0-2.31,0H80.78" fill="none" stroke="#fff" stroke-linecap="round" stroke-miterlimit="10" stroke-width="2"/>
  </g>

  <g opacity="0">
  <animate attributeType="CSS"
        attributeName="opacity"
        values="0; 0; 1"
        keyTimes="0; 0.8; 1"
        dur="2.5s"
        begin="start.begin"
        fill="freeze"/>
  <path d="M275 225.43H257.87C253.22 225.409 248.766 223.548 245.484 220.254C242.201 216.96 240.355 212.501 240.35 207.85V170C240.355 165.349 242.201 160.89 245.484 157.596C248.766 154.302 253.22 152.441 257.87 152.42H275C279.649 152.444 284.099 154.306 287.38 157.6C290.661 160.893 292.505 165.351 292.51 170V207.83C292.507 212.481 290.665 216.943 287.384 220.24C284.103 223.538 279.651 225.404 275 225.43V225.43Z" fill="none" stroke="white" stroke-width="2">
  <animate
          attributeName="d"
          begin="start.begin + 2s"
          dur="0.5s"
          values="
          M204.95 242.43H202.503C201.839 242.427 201.202 242.161 200.733 241.691C200.264 241.22 200.001 240.583 200 239.919V234.511C200.001 233.847 200.264 233.21 200.733 232.739C201.202 232.269 201.839 232.003 202.503 232H204.95C205.614 232.003 206.25 232.269 206.719 232.74C207.187 233.21 207.451 233.847 207.451 234.511V239.916C207.451 240.58 207.188 241.218 206.719 241.689C206.25 242.16 205.614 242.426 204.95 242.43V242.43Z;
          M275 225.43H257.87C253.22 225.409 248.766 223.548 245.484 220.254C242.201 216.96 240.355 212.501 240.35 207.85V170C240.355 165.349 242.201 160.89 245.484 157.596C248.766 154.302 253.22 152.441 257.87 152.42H275C279.649 152.444 284.099 154.306 287.38 157.6C290.661 160.893 292.505 165.351 292.51 170V207.83C292.507 212.481 290.665 216.943 287.384 220.24C284.103 223.538 279.651 225.404 275 225.43V225.43Z
          "
          fill="freeze"/>
  </path>
  </g>
  <g opacity="0">
  <animateTransform attributeName="transform"
        type="translate"
        values="-40 0; -40 0; 0 0"
        keyTimes="0; 0.9; 1"
        dur="3s"
        begin="start.begin"
        fill="freeze"/>
    <animate attributeType="CSS"
        attributeName="opacity"
        values="0; 0; 1"
        keyTimes="0; 0.9; 1"
        dur="3s"
        begin="start.begin"
        fill="freeze"/>
    <path d="M91.14 327.79C90.5631 327.739 90.0296 327.463 89.6552 327.021C89.2808 326.579 89.0957 326.007 89.14 325.43L102.8 132.26C103.9 116.77 98 110.34 94.05 107.79C93.8264 107.639 93.6532 107.425 93.5526 107.174C93.4521 106.924 93.4288 106.649 93.4858 106.386C93.5429 106.122 93.6776 105.881 93.8726 105.695C94.0677 105.509 94.314 105.385 94.58 105.34C103 104 122.18 104 120 134.19L106.43 326.67C106.379 327.245 106.104 327.777 105.664 328.151C105.225 328.525 104.656 328.712 104.08 328.67L91.14 327.79Z" fill="white"/>
    <path d="M124.5 328.17C124.211 328.166 123.926 328.105 123.66 327.991C123.395 327.877 123.155 327.712 122.953 327.504C122.752 327.297 122.593 327.053 122.486 326.784C122.379 326.516 122.326 326.229 122.33 325.94L124.57 132.31C124.76 116.78 118.5 110.7 114.41 108.4C114.18 108.261 113.997 108.057 113.884 107.814C113.771 107.571 113.733 107.299 113.774 107.034C113.816 106.769 113.936 106.522 114.119 106.326C114.302 106.129 114.539 105.991 114.8 105.93C123.16 104.03 142.29 102.93 141.95 133.21L139.7 326.14C139.697 326.429 139.638 326.714 139.525 326.98C139.412 327.246 139.248 327.487 139.042 327.69C138.835 327.892 138.591 328.052 138.323 328.16C138.056 328.268 137.769 328.323 137.48 328.32L124.5 328.17Z" fill="white"/>
  </g>
  <g opacity="0">
  <animateTransform attributeName="transform"
        type="translate"
        values="-120 0; -120 0; 0 0"
        keyTimes="0; 0.9; 1"
        dur="2.8s"
        begin="start.begin"
        fill="freeze"/>
    <animate attributeType="CSS"
        attributeName="opacity"
        values="0; 0; 1"
        keyTimes="0; 0.9; 1"
        dur="2.8s"
        begin="start.begin"
        fill="freeze"/>
    <path d="M257.5 259.82H196.76V245.63H251.85C254.479 245.635 256.999 246.684 258.855 248.546C260.711 250.408 261.753 252.931 261.75 255.56C261.747 256.686 261.299 257.766 260.502 258.562C259.706 259.359 258.626 259.807 257.5 259.81" fill="#A67EE5"/>
    <path d="M257.5 259.82H196.76V245.63H251.85C254.479 245.635 256.999 246.684 258.855 248.546C260.711 250.408 261.753 252.931 261.75 255.56C261.75 256.688 261.303 257.77 260.506 258.569C259.709 259.367 258.628 259.817 257.5 259.82Z" fill="none" stroke="white" stroke-width="2" stroke-miterlimit="10"/>
    <path d="M185.47 328.31H171.5L165.19 286.72H179.16L185.47 328.31Z" fill="#A67EE5"/>
    <path d="M185.47 328.31H171.5L165.19 286.72H179.16L185.47 328.31Z" fill="none" stroke="white" stroke-width="2" stroke-miterlimit="10"/>
    <path d="M235.03 328.31H221.06L214.76 286.72H228.72L235.03 328.31Z" fill="#A67EE5"/>
    <path d="M235.03 328.31H221.06L214.76 286.72H228.72L235.03 328.31Z" fill="none" stroke="white" stroke-width="2" stroke-miterlimit="10"/>
    <path d="M281.33 272.45H225.44C224.099 272.45 222.803 271.968 221.788 271.093C220.773 270.217 220.107 269.006 219.91 267.68L209.05 195.44C211.935 193.051 213.989 189.808 214.915 186.178C215.841 182.548 215.592 178.717 214.204 175.238C212.816 171.758 210.36 168.808 207.19 166.812C204.019 164.816 200.298 163.877 196.56 164.13H141.48L141.16 267L156.93 290.35L204.12 298.74C205.472 299.235 206.9 299.489 208.34 299.49H281.34C284.928 299.49 288.37 298.065 290.907 295.527C293.445 292.99 294.87 289.548 294.87 285.96C294.87 282.372 293.445 278.93 290.907 276.393C288.37 273.855 284.928 272.43 281.34 272.43" fill="#A67EE5"/>
    <path d="M281.33 272.45H225.44C224.099 272.45 222.803 271.968 221.788 271.093C220.773 270.217 220.107 269.006 219.91 267.68L209.05 195.44C211.935 193.051 213.989 189.808 214.915 186.178C215.841 182.548 215.592 178.717 214.204 175.238C212.816 171.758 210.36 168.808 207.19 166.812C204.019 164.816 200.298 163.877 196.56 164.13H141.48L141.16 267L156.93 290.35L204.12 298.74C205.472 299.235 206.9 299.489 208.34 299.49H281.34C284.836 299.354 288.143 297.87 290.568 295.348C292.992 292.826 294.346 289.464 294.345 285.965C294.344 282.467 292.987 279.105 290.561 276.585C288.134 274.065 284.826 272.583 281.33 272.45V272.45Z" fill="none" stroke="white" stroke-width="2" stroke-miterlimit="10"/>
    <path d="M162.42 267.69L151.56 195.45C153.859 193.547 155.641 191.095 156.738 188.319C157.836 185.544 158.215 182.536 157.839 179.576C157.463 176.615 156.346 173.797 154.589 171.384C152.833 168.971 150.496 167.041 147.794 165.773C145.092 164.505 142.114 163.94 139.136 164.132C136.157 164.323 133.276 165.263 130.758 166.866C128.241 168.469 126.169 170.682 124.736 173.3C123.303 175.918 122.554 178.856 122.56 181.84C122.562 183.619 122.829 185.389 123.35 187.09L138.65 289C139.086 291.928 140.558 294.602 142.799 296.536C145.039 298.47 147.9 299.536 150.86 299.54H223.86C227.383 299.444 230.73 297.977 233.189 295.451C235.647 292.925 237.022 289.54 237.022 286.015C237.022 282.49 235.647 279.105 233.189 276.579C230.73 274.053 227.383 272.586 223.86 272.49H167.95C166.61 272.484 165.316 271.998 164.302 271.122C163.288 270.245 162.62 269.035 162.42 267.71" fill="#A67EE5"/>
    <path d="M162.42 267.69L151.56 195.45C153.859 193.547 155.641 191.095 156.738 188.319C157.836 185.544 158.215 182.536 157.839 179.576C157.463 176.615 156.346 173.797 154.589 171.384C152.833 168.971 150.496 167.041 147.794 165.773C145.092 164.505 142.114 163.94 139.136 164.132C136.157 164.323 133.276 165.263 130.758 166.866C128.241 168.469 126.169 170.682 124.736 173.3C123.303 175.918 122.554 178.856 122.56 181.84C122.562 183.619 122.829 185.389 123.35 187.09L138.65 289C139.086 291.928 140.558 294.602 142.799 296.536C145.039 298.47 147.9 299.536 150.86 299.54H223.86C227.383 299.444 230.73 297.977 233.189 295.451C235.647 292.925 237.022 289.54 237.022 286.015C237.022 282.49 235.647 279.105 233.189 276.579C230.73 274.053 227.383 272.586 223.86 272.49H167.95C166.607 272.483 165.31 271.995 164.296 271.114C163.281 270.234 162.616 269.019 162.42 267.69Z" fill="none" stroke="white" stroke-width="2" stroke-miterlimit="10"/>
    <path d="M206.26 259.82H134.26L132.13 245.63H200.6C203.229 245.635 205.749 246.684 207.605 248.546C209.461 250.408 210.503 252.931 210.5 255.56C210.497 256.686 210.049 257.766 209.252 258.562C208.456 259.359 207.376 259.807 206.25 259.81" fill="#A67EE5"/>
    <path d="M206.26 259.82H134.26L132.13 245.63H200.6C203.229 245.635 205.749 246.684 207.605 248.546C209.461 250.408 210.503 252.931 210.5 255.56C210.5 256.686 210.054 257.767 209.259 258.565C208.465 259.364 207.386 259.815 206.26 259.82Z" fill="none" stroke="white" stroke-width="2" stroke-miterlimit="10"/>
    <path d="M151.57 195.44H209.05" stroke="white" stroke-width="2" stroke-miterlimit="10" stroke-linecap="round"/>
  </g>

<g>
    <defs>
    <clipPath id="cut-window">
      <rect x="0" y="0" width="53" height="20" />
    </clipPath>
  </defs>
  <g clip-path="url(#cut-window)" transform="translate(240, 165)">
  <g opacity="0">
      <animate attributeType="CSS"
        attributeName="opacity"
        values="0; 0; 1"
        keyTimes="0; 0.95; 1"
        dur="4s"
        begin="start.begin"
        fill="freeze"/>
  <animateTransform attributeName="transform"
        repeatCount="indefinite"
        type="translate"
        values="60 0; -100 0"
        dur="2s"
        begin="start.begin +3.5s"
        fill="freeze"/>
<path d="M38.5954 17.621H67.761" stroke="white" stroke-width="2" stroke-miterlimit="10" stroke-linecap="round"/>
<path d="M53.1049 10.0913H33.0453C33.0453 7.68017 32.0875 5.36775 30.3825 3.66279C28.6776 1.95783 26.3652 1 23.954 1C21.5428 1 19.2304 1.95783 17.5254 3.66279C15.8205 5.36775 14.8627 7.68017 14.8627 10.0913H1.70953" fill="none" stroke="white" stroke-width="2" stroke-miterlimit="10" stroke-linecap="round"/>
<path d="M59.1609 10.0913H75.43" stroke="white" stroke-width="2" stroke-miterlimit="10" stroke-linecap="round"/>
</g>
</g>
</g>

<g>
    <defs>
    <clipPath id="cut-window">
      <rect x="0" y="0" width="53" height="20" />
    </clipPath>
  </defs>
  <g clip-path="url(#cut-window)" transform="translate(240, 190)">
  <g opacity="0">
    <animate attributeType="CSS"
        attributeName="opacity"
        values="0; 0; 1"
        keyTimes="0; 0.95; 1"
        dur="3s"
        begin="start.begin"
        fill="freeze"/>
  <animateTransform attributeName="transform"
        repeatCount="indefinite"
        type="translate"
        values="60 0; -100 0"
        dur="2s"
        begin="start.begin + 2.5s"
        fill="freeze"/>
<path d="M21.6627 18.34H67.7865" stroke="white" stroke-width="2" stroke-miterlimit="10" stroke-linecap="round"/>
<path d="M1.73502 10.8176H27.6087C27.6087 8.40647 28.5665 6.09405 30.2715 4.38909C31.9764 2.68414 34.2888 1.7263 36.7 1.7263C39.1112 1.7263 41.4236 2.68414 43.1286 4.38909C44.8335 6.09405 45.7914 8.40647 45.7914 10.8176H58.9371" fill="none" stroke="white" stroke-width="2" stroke-miterlimit="10" stroke-linecap="round"/>
</g>
</g>
</g>

<g transform="translate(50, 170)">
  <g  opacity="0">
  <animateTransform attributeName="transform"
          type="translate"
          values="-40 0; -40 0; 0 0"
          keyTimes="0; 0.9; 1"
          dur="3s"
          begin="start.begin"
          fill="freeze"/>
      <animate attributeType="CSS"
          attributeName="opacity"
          values="0; 0; 1"
          keyTimes="0; 0.9; 1"
          dur="3s"
          begin="start.begin"
          fill="freeze"/>
  <animateTransform attributeName="transform"
          type="rotate"
          values="0 97 158; 5 97 158; -2.5 97 158; 2.5 97 158; 0 97 158"
          dur="1s"
          begin="start.begin + 3s"
          fill="freeze"/>
  <path d="M25.18 23C31.4261 31.316 36.6596 40.3463 40.77 49.9C33.606 42.4638 26.9004 34.5993 20.69 26.35C14.4883 18.0719 8.78812 9.42978 3.62 0.470001C11.6734 7.09981 18.9108 14.6628 25.18 23" fill="#36E69A"/>
  <path d="M26.94 43.39C35.3383 49.2758 42.9938 56.1558 49.74 63.88C40.8077 59.187 32.1775 53.94 23.9 48.17C15.7048 42.4394 7.88233 36.1935 0.47998 29.47C9.84656 32.9871 18.7357 37.6635 26.94 43.39" fill="#36E69A"/>
  <path d="M39.66 34.48C42.4274 44.47 45.7935 54.2844 49.74 63.87C49.4995 53.5504 47.9881 43.2998 45.24 33.35C42.3865 23.0984 38.3387 13.2173 33.18 3.91C34.7226 14.2204 36.8832 24.4287 39.65 34.48" fill="#36E69A"/>
  <path d="M53.32 42.52C53.3772 52.7759 54.0652 63.0186 55.38 73.19C57.898 63.3725 59.1614 53.2753 59.14 43.14C59.0751 32.5637 57.7321 22.034 55.14 11.78C53.8539 21.9756 53.2293 32.2437 53.27 42.52" fill="#25B774"/>
  <path d="M29.08 58.56C38.4142 62.3358 47.2447 67.2532 55.37 73.2C45.7921 70.7528 36.3852 67.6795 27.21 64C18.1574 60.3388 9.34929 56.1001 0.839966 51.31C10.5308 52.5158 20.0257 54.966 29.09 58.6" fill="#25B774"/>
  <path d="M34.06 72.83C43.6806 75.3773 52.9406 79.1304 61.62 84C51.9084 82.8029 42.2919 80.9317 32.84 78.4C23.5057 75.8933 14.346 72.7766 5.41998 69.07C15.0895 69.0933 24.7168 70.3466 34.07 72.8" fill="#25B774"/>
  <path d="M64.71 53.79C63.0329 63.7969 61.9974 73.9009 61.61 84.04C65.7562 74.9422 68.7203 65.3508 70.43 55.5C72.1799 45.2008 72.6568 34.7256 71.85 24.31C68.772 33.9551 66.3827 43.8065 64.7 53.79" fill="#25B774"/>
  <path d="M44.86 91C54.3668 93.9572 63.4622 98.1034 71.93 103.34C62.2748 101.737 52.7421 99.4683 43.4 96.55C34.181 93.6611 25.1616 90.1703 16.4 86.1C26.0559 86.5209 35.6192 88.1675 44.86 91Z" fill="#068E4D"/>
  <path d="M76.27 73.29C74.1792 83.2199 72.7296 93.274 71.93 103.39C76.4539 94.4696 79.8146 85.0057 81.93 75.23C84.1046 65.0136 85.0148 54.5686 84.64 44.13C81.1684 53.6405 78.3748 63.3848 76.28 73.29" fill="#068E4D"/>
  <path d="M54.9 109.69C64.2788 113.044 73.1961 117.57 81.44 123.16C71.8577 121.144 62.4255 118.471 53.21 115.16C44.1172 111.886 35.2483 108.021 26.66 103.59C36.2933 104.409 45.7831 106.452 54.9 109.67" fill="#068E4D"/>
  <path d="M87 93.26C84.4992 103.096 82.6354 113.084 81.42 123.16C86.3023 114.429 90.0493 105.11 92.57 95.43C95.1727 85.3004 96.5162 74.8885 96.57 64.43C92.7019 73.8014 89.5038 83.4357 87 93.26" fill="#068E4D"/>
  <path d="M38.62 46.67C61.835 81.0893 80.9195 118.121 95.48 157" fill="none" stroke="#36E69A" stroke-width="2" stroke-linecap="round" stroke-linejoin="round"/>
  </g>
</g>

</svg>
